<svg xmlns="http://www.w3.org/2000/svg" width="341" height="265" viewBox="0 0 341 265">
    <defs>
        <clipPath id="clip-path">
            <path id="사각형_3297" data-name="사각형 3297" style="fill:none" d="M0 0h168.436v42.074H0z"/>
        </clipPath>
        <style>
            .cls-5{fill:#fff}
        </style>
    </defs>
    <g id="로고_03" transform="translate(-17 -1906)">
        <path id="사각형_3463" data-name="사각형 3463" transform="translate(17 1906)" style="fill:#222" d="M0 0h341v265H0z"/>
        <g id="그룹_2097" data-name="그룹 2097" transform="translate(103.02 2017)">
            <g id="그룹_1810" data-name="그룹 1810" transform="translate(.383)">
                <g id="그룹_1809" data-name="그룹 1809" style="clip-path:url(#clip-path)">
                    <path id="패스_1288" data-name="패스 1288" class="cls-5" d="M82.83 19.13c-.256-.829-.606-1.053-1.148-.893a2.913 2.913 0 0 1-.606.128c-.351 0-.383-.254-.383-.606V1.5c0-.957-.541-1.659-1.5-1.468L76.612.51c-.957.191-1.466.541-1.466 1.466v16.261c0 3.284 1.69 4.974 4.878 4.974a5.835 5.835 0 0 0 2.838-.67c.542-.319.8-.574.511-1.466z" transform="translate(-27.131)"/>
                    <path id="패스_1289" data-name="패스 1289" class="cls-5" d="M93.381 25.9a3.316 3.316 0 1 0 3.319 3.314 3.314 3.314 0 0 0-3.319-3.314" transform="translate(-32.517 -9.35)"/>
                    <path id="패스_1290" data-name="패스 1290" class="cls-5" d="M144.321 10.079c-5.165 0-8.9 3.572-8.9 8.386s3.73 8.386 8.9 8.386 8.9-3.572 8.9-8.386-3.73-8.386-8.9-8.386m0 12.053a3.472 3.472 0 0 1-3.475-3.667 3.465 3.465 0 1 1 6.918 0 3.446 3.446 0 0 1-3.443 3.667" transform="translate(-48.894 -3.639)"/>
                    <path id="패스_1291" data-name="패스 1291" class="cls-5" d="M196.335 22.355c-.255-.829-.606-1.053-1.147-.893a2.947 2.947 0 0 1-.606.127c-.351 0-.383-.254-.383-.606v-3.932h-.033v-.02c0-4.241-2.742-6.951-6.7-6.951a7.113 7.113 0 0 0-5.229 2.137 6.2 6.2 0 0 0-4.942-2.137 6.007 6.007 0 0 0-5.1 2.647 3.917 3.917 0 0 0-4.05-2.647 5.694 5.694 0 0 0-2.391.542c-.7.351-.829.765-.638 1.594l.446 2.1c.192.8.574.925.861.893.319-.032.733-.287 1.02-.287.224 0 .351.16.351.447v9.6a1.318 1.318 0 0 0 1.435 1.466h2.646a1.318 1.318 0 0 0 1.435-1.466v-7.524a2.431 2.431 0 0 1 2.487-2.678 2.369 2.369 0 0 1 2.424 2.678v7.525a1.318 1.318 0 0 0 1.435 1.466h2.646a1.318 1.318 0 0 0 1.435-1.466v-7.525a2.448 2.448 0 0 1 2.487-2.678 2.369 2.369 0 0 1 2.423 2.678v4.016c0 3.284 1.691 4.974 4.878 4.974a5.835 5.835 0 0 0 2.838-.67c.542-.319.8-.574.511-1.467z" transform="translate(-59.586 -3.639)"/>
                    <path id="패스_1292" data-name="패스 1292" class="cls-5" d="m245.432 24.3-.542-1.944c-.255-.829-.606-1.053-1.147-.893a2.947 2.947 0 0 1-.606.127c-.351 0-.383-.255-.383-.606v-3.933h-.035v-.02c0-4.241-2.742-6.951-6.7-6.951a7.113 7.113 0 0 0-5.229 2.137 6.2 6.2 0 0 0-4.942-2.137 6.007 6.007 0 0 0-5.1 2.647 3.917 3.917 0 0 0-4.05-2.647 5.694 5.694 0 0 0-2.391.542c-.7.351-.829.765-.638 1.594l.446 2.1c.192.8.574.925.861.893.319-.032.733-.287 1.02-.287.224 0 .351.16.351.446v9.6a1.318 1.318 0 0 0 1.435 1.466h2.646a1.318 1.318 0 0 0 1.435-1.466v-7.523a2.431 2.431 0 0 1 2.487-2.678 2.369 2.369 0 0 1 2.424 2.678v7.525a1.318 1.318 0 0 0 1.435 1.466h2.646a1.318 1.318 0 0 0 1.435-1.466v-7.525a2.448 2.448 0 0 1 2.487-2.678 2.369 2.369 0 0 1 2.423 2.678V21.462c0 3.284 1.691 4.974 4.878 4.974a5.842 5.842 0 0 0 2.838-.67c.542-.319.8-.574.511-1.467" transform="translate(-77.115 -3.639)"/>
                    <path id="패스_1293" data-name="패스 1293" class="cls-5" d="M58.981 22.355c-.254-.829-.606-1.053-1.147-.894a2.913 2.913 0 0 1-.606.128c-.351 0-.383-.255-.383-.606v-9.342a1.342 1.342 0 0 0-1.466-1.466h-1.562a1.318 1.318 0 0 0-1.434 1.466v.351a7.694 7.694 0 0 0-5.1-1.913c-4.623 0-7.971 3.667-7.971 8.386s3.38 8.386 7.971 8.386a6.865 6.865 0 0 0 4.973-2.045 4.618 4.618 0 0 0 3.923 1.631 5.84 5.84 0 0 0 2.838-.67c.542-.319.8-.573.51-1.466zm-10.808-.223a3.44 3.44 0 0 1-3.412-3.667 3.44 3.44 0 0 1 3.412-3.665 3.388 3.388 0 0 1 3.411 3.667 3.442 3.442 0 0 1-3.411 3.667" transform="translate(-14.192 -3.639)"/>
                    <path id="패스_1294" data-name="패스 1294" class="cls-5" d="M12.141 3.243H3.109a5.689 5.689 0 0 0-2.392.542c-.7.351-.829.765-.638 1.594l.447 2.1c.191.8.574.926.861.894.319-.033.733-.287 1.02-.287.224 0 .351.159.351.446v1.356h.008v12.581a1.361 1.361 0 0 0 1.5 1.5h7.875c6.728 0 10.9-4.144 10.9-10.395 0-6.185-4.176-10.33-10.9-10.33m-.223 16.165h-3.54V7.8h3.54c3.188 0 5.452 2.137 5.452 5.8s-2.264 5.8-5.452 5.8" transform="translate(0 -1.171)"/>
                    <path id="패스_1295" data-name="패스 1295" class="cls-5" d="M121.952 20.174c-.224-.828-.542-1.084-1.243-.893a2.039 2.039 0 0 1-.829.065c-.319-.065-.7-.383-1.689-1.754l-3.443-4.847 6.792-8c.733-.861.222-1.5-.765-1.5h-3.6c-.988 0-1.466.574-2.168 1.467l-5.515 6.536v-6.5a1.361 1.361 0 0 0-1.5-1.5h-3.768a5.694 5.694 0 0 0-2.392.542c-.7.351-.829.765-.638 1.594l.446 2.1c.192.8.574.925.861.893.319-.032.733-.287 1.02-.287.224 0 .351.16.351.447v2.885h.006V22.47a1.36 1.36 0 0 0 1.5 1.5h2.615a1.36 1.36 0 0 0 1.5-1.5V17.4l1.212-1.371 2.359 3.284a28.307 28.307 0 0 0 2.965 3.827 5.1 5.1 0 0 0 3.507 1.211 4.546 4.546 0 0 0 2.328-.511 1.166 1.166 0 0 0 .638-1.594z" transform="translate(-36.505 -1.171)"/>
                    <path id="패스_1296" data-name="패스 1296" class="cls-5" d="M43.011 57v-4.819c0-1.817.909-2.877 2.45-2.877a2.237 2.237 0 0 1 2.354 2.243c0 .124-.014.247-.179.247h-.771c-.151 0-.22-.041-.234-.192a1.215 1.215 0 0 0-1.156-1.128c-.716 0-1.211.605-1.211 1.707V57c0 1.1.5 1.707 1.211 1.707a1.215 1.215 0 0 0 1.156-1.128c.014-.152.083-.193.234-.193h.771c.165 0 .179.124.179.248a2.237 2.237 0 0 1-2.354 2.243c-1.541 0-2.45-1.06-2.45-2.877" transform="translate(-15.529 -17.801)"/>
                    <path id="패스_1297" data-name="패스 1297" class="cls-5" d="M53.953 57v-4.819c0-1.817.909-2.877 2.45-2.877s2.45 1.059 2.45 2.877V57c0 1.817-.909 2.877-2.45 2.877s-2.45-1.06-2.45-2.877m3.647 0v-4.819c0-1.1-.5-1.707-1.2-1.707s-1.2.605-1.2 1.707V57c0 1.115.5 1.707 1.2 1.707s1.2-.592 1.2-1.707" transform="translate(-19.479 -17.801)"/>
                    <path id="패스_1298" data-name="패스 1298" class="cls-5" d="M68.982 49.786v.523c0 .206-.082.289-.289.289H66.67c-.206 0-.261.055-.261.262v2.821c0 .207.055.262.261.262h1.335c.206 0 .289.082.289.289v.523c0 .206-.083.289-.289.289H66.67c-.206 0-.261.055-.261.261v4.225c0 .206-.082.289-.289.289h-.674c-.206 0-.289-.083-.289-.289v-9.744c0-.206.082-.289.289-.289h3.248c.206 0 .289.082.289.289" transform="translate(-23.524 -17.87)"/>
                    <path id="패스_1299" data-name="패스 1299" class="cls-5" d="M78.029 49.786v.523c0 .206-.082.289-.289.289h-2.023c-.206 0-.261.055-.261.262v2.821c0 .207.055.262.261.262h1.335c.206 0 .289.082.289.289v.523c0 .206-.083.289-.289.289h-1.335c-.206 0-.261.055-.261.261v4.225c0 .206-.082.289-.289.289h-.674c-.206 0-.289-.083-.289-.289v-9.744c0-.206.082-.289.289-.289h3.247c.206 0 .289.082.289.289" transform="translate(-26.79 -17.87)"/>
                    <path id="패스_1300" data-name="패스 1300" class="cls-5" d="M84.5 53.681c0 .207.055.263.261.263h2.01c.206 0 .289.081.289.289v.523c0 .206-.083.289-.289.289h-2.01c-.206 0-.261.056-.261.262v3.151c0 .206.055.261.261.261h2.01c.206 0 .289.082.289.289v.523c0 .206-.083.289-.289.289H83.54c-.206 0-.289-.083-.289-.289v-9.744c0-.206.082-.289.289-.289h3.235c.206 0 .289.082.289.289v.523c0 .206-.083.288-.289.288h-2.01c-.206 0-.261.056-.261.262z" transform="translate(-30.057 -17.871)"/>
                    <path id="패스_1301" data-name="패스 1301" class="cls-5" d="M94 53.681c0 .207.055.263.261.263h2.01c.206 0 .289.081.289.289v.523c0 .206-.083.289-.289.289h-2.01c-.206 0-.261.056-.261.262v3.151c0 .206.055.261.261.261h2.01c.206 0 .289.082.289.289v.523c0 .206-.083.289-.289.289H93.04c-.206 0-.289-.083-.289-.289v-9.744c0-.206.082-.289.289-.289h3.235c.206 0 .289.082.289.289v.523c0 .206-.083.288-.289.288h-2.01c-.206 0-.261.056-.261.262z" transform="translate(-33.487 -17.871)"/>
                    <path id="패스_1302" data-name="패스 1302" class="cls-5" d="M113.555 54.658v.44c0 .207-.082.289-.289.289h-.523c-.206 0-.261.056-.261.262v1.872a2.075 2.075 0 0 1-2.133 2.353c-1.1 0-2.174-.661-2.174-2.477v-1.28a2.214 2.214 0 0 1 .743-1.8 2.217 2.217 0 0 1-.743-1.8v-.73c0-1.817 1.073-2.477 2.161-2.477a1.864 1.864 0 0 1 1.982 1.652c.013.123-.014.247-.179.247h-.661a.211.211 0 0 1-.234-.165.9.9 0 0 0-.853-.619c-.482 0-1.005.317-1.005 1.184v.936c0 .866.523 1.2 1.005 1.2.206 0 .289.083.289.289v.565c0 .206-.082.289-.289.289-.482 0-1.005.33-1.005 1.2v1.5c0 .867.537 1.183 1.019 1.183a1.034 1.034 0 0 0 1.033-1.183v-2.93c0-.206.082-.289.289-.289h1.542c.206 0 .289.082.289.289" transform="translate(-39.055 -17.801)"/>
                    <path id="패스_1303" data-name="패스 1303" class="cls-5" d="M125.58 57v-4.819c0-1.817.909-2.877 2.45-2.877a2.236 2.236 0 0 1 2.353 2.243c0 .124-.013.247-.178.247h-.771c-.151 0-.22-.041-.233-.192a1.216 1.216 0 0 0-1.156-1.128c-.716 0-1.211.605-1.211 1.707V57c0 1.1.5 1.707 1.211 1.707a1.216 1.216 0 0 0 1.156-1.128c.013-.152.082-.193.233-.193h.771c.165 0 .178.124.178.248a2.236 2.236 0 0 1-2.353 2.243c-1.541 0-2.45-1.06-2.45-2.877" transform="translate(-45.339 -17.801)"/>
                    <path id="패스_1304" data-name="패스 1304" class="cls-5" d="M136.523 57v-4.819c0-1.817.909-2.877 2.45-2.877s2.45 1.059 2.45 2.877V57c0 1.817-.909 2.877-2.45 2.877s-2.45-1.06-2.45-2.877m3.648 0v-4.819c0-1.1-.5-1.707-1.2-1.707s-1.2.605-1.2 1.707V57c0 1.115.5 1.707 1.2 1.707s1.2-.592 1.2-1.707" transform="translate(-49.29 -17.801)"/>
                    <path id="패스_1305" data-name="패스 1305" class="cls-5" d="M151.552 49.786v.523c0 .206-.083.289-.289.289h-2.023c-.206 0-.261.055-.261.262v2.821c0 .207.055.262.261.262h1.335c.207 0 .289.082.289.289v.523c0 .206-.082.289-.289.289h-1.335c-.206 0-.261.055-.261.261v4.225c0 .206-.083.289-.289.289h-.674c-.206 0-.289-.083-.289-.289v-9.744c0-.206.083-.289.289-.289h3.248c.206 0 .289.082.289.289" transform="translate(-53.335 -17.87)"/>
                    <path id="패스_1306" data-name="패스 1306" class="cls-5" d="M160.6 49.786v.523c0 .206-.083.289-.289.289h-2.023c-.206 0-.261.055-.261.262v2.821c0 .207.055.262.261.262h1.335c.207 0 .289.082.289.289v.523c0 .206-.082.289-.289.289h-1.335c-.206 0-.261.055-.261.261v4.225c0 .206-.083.289-.289.289h-.674c-.206 0-.289-.083-.289-.289v-9.744c0-.206.083-.289.289-.289h3.248c.206 0 .289.082.289.289" transform="translate(-56.601 -17.87)"/>
                    <path id="패스_1307" data-name="패스 1307" class="cls-5" d="M167.072 53.681c0 .207.055.263.261.263h2.01c.206 0 .289.081.289.289v.523c0 .206-.083.289-.289.289h-2.01c-.206 0-.261.056-.261.262v3.151c0 .206.055.261.261.261h2.01c.206 0 .289.082.289.289v.523c0 .206-.083.289-.289.289h-3.235c-.206 0-.289-.083-.289-.289v-9.744c0-.206.082-.289.289-.289h3.235c.206 0 .289.082.289.289v.523c0 .206-.083.288-.289.288h-2.01c-.206 0-.261.056-.261.262z" transform="translate(-59.868 -17.871)"/>
                    <path id="패스_1308" data-name="패스 1308" class="cls-5" d="M176.571 53.681c0 .207.055.263.262.263h2.009c.206 0 .289.081.289.289v.523c0 .206-.083.289-.289.289h-2.009c-.207 0-.262.056-.262.262v3.151c0 .206.055.261.262.261h2.009c.206 0 .289.082.289.289v.523c0 .206-.083.289-.289.289h-3.234c-.206 0-.289-.083-.289-.289v-9.744c0-.206.083-.289.289-.289h3.234c.206 0 .289.082.289.289v.523c0 .206-.083.288-.289.288h-2.009c-.207 0-.262.056-.262.262z" transform="translate(-63.297 -17.871)"/>
                    <path id="패스_1309" data-name="패스 1309" class="cls-5" d="M190.85 59.532v-9.745c0-.206.083-.289.289-.289h2a2.307 2.307 0 0 1 2.422 2.574v.289a2.315 2.315 0 0 1-1.033 2.05 2.342 2.342 0 0 1 1.2 2.354v.412a2.347 2.347 0 0 1-2.492 2.643h-2.092c-.206 0-.289-.082-.289-.289m2.162-5.643c.757 0 1.321-.468 1.321-1.486v-.317c0-1.019-.551-1.486-1.321-1.486h-.647c-.207 0-.262.055-.262.289v2.739c0 .206.055.261.262.261zm.082 4.831c.812 0 1.39-.482 1.39-1.611V56.6c0-1.143-.578-1.61-1.39-1.61h-.729c-.207 0-.262.055-.262.261v3.207c0 .206.055.261.262.261z" transform="translate(-68.905 -17.871)"/>
                    <path id="패스_1310" data-name="패스 1310" class="cls-5" d="M203.154 49.772c.056-.234.151-.275.372-.275h.523c.22 0 .316.042.371.275l2.119 9.772c.042.206-.055.275-.206.275h-.716c-.179 0-.261-.069-.3-.275l-.387-1.844c-.042-.165-.1-.193-.275-.193h-1.735c-.179 0-.234.027-.275.193l-.385 1.844c-.041.206-.124.275-.3.275h-.716c-.152 0-.249-.069-.207-.275zm-.137 6.634h1.542c.068 0 .123-.041.11-.151l-.8-4.074c-.028-.1-.151-.1-.165 0l-.8 4.074c-.014.111.042.151.11.151" transform="translate(-72.578 -17.87)"/>
                    <path id="패스_1311" data-name="패스 1311" class="cls-5" d="M217.573 59.82h-.813a.3.3 0 0 1-.316-.192l-1.487-3.855h-.771c-.206 0-.261.055-.261.262v3.5c0 .206-.082.289-.289.289h-.674c-.206 0-.289-.083-.289-.289v-9.749c0-.206.082-.289.289-.289h2c1.376 0 2.367.977 2.367 2.712v.866a2.575 2.575 0 0 1-1.211 2.423l1.6 4.046c.07.165 0 .276-.137.276m-3.386-5.19h.689c.619 0 1.211-.467 1.211-1.555v-.909c0-1.1-.592-1.569-1.211-1.569h-.689c-.206 0-.261.056-.261.262v3.51c0 .206.055.261.261.261" transform="translate(-76.784 -17.87)"/>
                </g>
            </g>
        </g>
    </g>
</svg>
