<svg xmlns="http://www.w3.org/2000/svg" width="341" height="265" viewBox="0 0 341 265">
    <defs>
        <clipPath id="clip-path">
            <path id="사각형_3298" data-name="사각형 3298" style="fill:none" d="M0 0h290.198v23.212H0z"/>
        </clipPath>
        <style>
            .cls-5{fill:#161615}
        </style>
    </defs>
    <g id="로고_04" transform="translate(-17 -2171)">
        <path id="사각형_3511" data-name="사각형 3511" transform="translate(17 2171)" style="fill:#faf8f6" d="M0 0h341v265H0z"/>
        <g id="그룹_2098" data-name="그룹 2098" transform="translate(42.435 2291.405)">
            <g id="그룹_1812" data-name="그룹 1812" transform="translate(.757 .928)">
                <g id="그룹_1811" data-name="그룹 1811" style="clip-path:url(#clip-path)">
                    <path id="패스_1312" data-name="패스 1312" class="cls-5" d="M82.83 19.13c-.256-.829-.606-1.053-1.148-.893a2.947 2.947 0 0 1-.606.127c-.351 0-.383-.254-.383-.606V1.5c0-.957-.541-1.659-1.5-1.468L76.612.51c-.957.19-1.466.541-1.466 1.466v16.261c0 3.284 1.69 4.974 4.878 4.974a5.835 5.835 0 0 0 2.838-.67c.542-.319.8-.574.511-1.467z" transform="translate(-27.131)"/>
                    <path id="패스_1313" data-name="패스 1313" class="cls-5" d="M93.381 25.9a3.316 3.316 0 1 0 3.319 3.314 3.314 3.314 0 0 0-3.319-3.314" transform="translate(-32.517 -9.35)"/>
                    <path id="패스_1314" data-name="패스 1314" class="cls-5" d="M144.321 10.079c-5.165 0-8.9 3.572-8.9 8.386s3.73 8.386 8.9 8.386 8.9-3.572 8.9-8.386-3.73-8.386-8.9-8.386m0 12.053a3.472 3.472 0 0 1-3.475-3.667 3.465 3.465 0 1 1 6.918 0 3.446 3.446 0 0 1-3.443 3.667" transform="translate(-48.894 -3.639)"/>
                    <path id="패스_1315" data-name="패스 1315" class="cls-5" d="M196.335 22.355c-.255-.829-.606-1.053-1.147-.893a2.947 2.947 0 0 1-.606.127c-.351 0-.383-.254-.383-.606v-3.932h-.033v-.02c0-4.241-2.742-6.951-6.7-6.951a7.113 7.113 0 0 0-5.229 2.137 6.2 6.2 0 0 0-4.942-2.137 6.007 6.007 0 0 0-5.1 2.647 3.917 3.917 0 0 0-4.05-2.647 5.694 5.694 0 0 0-2.391.542c-.7.351-.829.765-.638 1.594l.446 2.1c.192.8.574.925.861.893.319-.032.733-.287 1.02-.287.224 0 .351.16.351.447v9.6a1.318 1.318 0 0 0 1.435 1.466h2.646a1.318 1.318 0 0 0 1.435-1.466v-7.524a2.431 2.431 0 0 1 2.487-2.678 2.369 2.369 0 0 1 2.424 2.678v7.525a1.318 1.318 0 0 0 1.435 1.466h2.646a1.318 1.318 0 0 0 1.435-1.466v-7.525a2.448 2.448 0 0 1 2.487-2.678 2.369 2.369 0 0 1 2.423 2.678v4.016c0 3.284 1.691 4.974 4.878 4.974a5.835 5.835 0 0 0 2.838-.67c.542-.319.8-.574.511-1.467z" transform="translate(-59.586 -3.639)"/>
                    <path id="패스_1316" data-name="패스 1316" class="cls-5" d="m245.432 24.3-.542-1.944c-.255-.829-.606-1.053-1.147-.893a2.947 2.947 0 0 1-.606.127c-.351 0-.383-.255-.383-.606v-3.933h-.035v-.02c0-4.241-2.742-6.951-6.7-6.951a7.113 7.113 0 0 0-5.229 2.137 6.2 6.2 0 0 0-4.942-2.137 6.007 6.007 0 0 0-5.1 2.647 3.917 3.917 0 0 0-4.05-2.647 5.694 5.694 0 0 0-2.391.542c-.7.351-.829.765-.638 1.594l.446 2.1c.192.8.574.925.861.893.319-.032.733-.287 1.02-.287.224 0 .351.16.351.446v9.6a1.318 1.318 0 0 0 1.435 1.466h2.646a1.318 1.318 0 0 0 1.435-1.466v-7.523a2.431 2.431 0 0 1 2.487-2.678 2.369 2.369 0 0 1 2.424 2.678v7.525a1.318 1.318 0 0 0 1.435 1.466h2.646a1.318 1.318 0 0 0 1.435-1.466v-7.525a2.448 2.448 0 0 1 2.487-2.678 2.369 2.369 0 0 1 2.423 2.678V21.462c0 3.284 1.691 4.974 4.878 4.974a5.842 5.842 0 0 0 2.838-.67c.542-.319.8-.574.511-1.467" transform="translate(-77.115 -3.639)"/>
                    <path id="패스_1317" data-name="패스 1317" class="cls-5" d="M58.981 22.355c-.254-.829-.606-1.053-1.147-.894a2.913 2.913 0 0 1-.606.128c-.351 0-.383-.255-.383-.606v-9.342a1.342 1.342 0 0 0-1.466-1.466h-1.562a1.318 1.318 0 0 0-1.434 1.466v.351a7.694 7.694 0 0 0-5.1-1.913c-4.623 0-7.971 3.667-7.971 8.386s3.38 8.386 7.971 8.386a6.865 6.865 0 0 0 4.973-2.045 4.618 4.618 0 0 0 3.923 1.631 5.84 5.84 0 0 0 2.838-.67c.542-.319.8-.573.51-1.466zm-10.808-.223a3.44 3.44 0 0 1-3.412-3.667 3.44 3.44 0 0 1 3.412-3.665 3.388 3.388 0 0 1 3.411 3.667 3.442 3.442 0 0 1-3.411 3.667" transform="translate(-14.192 -3.639)"/>
                    <path id="패스_1318" data-name="패스 1318" class="cls-5" d="M12.141 3.243H3.109a5.689 5.689 0 0 0-2.392.542c-.7.351-.829.765-.638 1.594l.447 2.1c.191.8.574.926.861.894.319-.033.733-.287 1.02-.287.224 0 .351.159.351.446v1.356h.008v12.581a1.361 1.361 0 0 0 1.5 1.5h7.875c6.728 0 10.9-4.144 10.9-10.395 0-6.185-4.176-10.33-10.9-10.33m-.223 16.165h-3.54V7.8h3.54c3.188 0 5.452 2.137 5.452 5.8s-2.264 5.8-5.452 5.8" transform="translate(0 -1.171)"/>
                    <path id="패스_1319" data-name="패스 1319" class="cls-5" d="M121.952 20.174c-.224-.828-.542-1.084-1.243-.893a2.039 2.039 0 0 1-.829.065c-.319-.065-.7-.383-1.689-1.754l-3.443-4.847 6.792-8c.733-.861.222-1.5-.765-1.5h-3.6c-.988 0-1.466.574-2.168 1.467l-5.515 6.536v-6.5a1.361 1.361 0 0 0-1.5-1.5h-3.768a5.694 5.694 0 0 0-2.392.542c-.7.351-.829.765-.638 1.594l.446 2.1c.192.8.574.925.861.893.319-.032.733-.287 1.02-.287.224 0 .351.16.351.447v2.885h.006V22.47a1.36 1.36 0 0 0 1.5 1.5h2.615a1.36 1.36 0 0 0 1.5-1.5V17.4l1.212-1.371 2.359 3.284a28.307 28.307 0 0 0 2.965 3.827 5.1 5.1 0 0 0 3.507 1.211 4.546 4.546 0 0 0 2.328-.511 1.166 1.166 0 0 0 .638-1.594z" transform="translate(-36.505 -1.171)"/>
                    <path id="패스_1320" data-name="패스 1320" class="cls-5" d="M276.586 27.478v-4.817c0-1.817.909-2.877 2.449-2.877a2.237 2.237 0 0 1 2.354 2.243c0 .124-.014.247-.179.247h-.771c-.151 0-.22-.041-.234-.192a1.215 1.215 0 0 0-1.156-1.128c-.716 0-1.21.605-1.21 1.707v4.817c0 1.1.495 1.707 1.21 1.707a1.215 1.215 0 0 0 1.156-1.128c.014-.152.083-.193.234-.193h.771c.165 0 .179.124.179.248a2.237 2.237 0 0 1-2.354 2.243c-1.541 0-2.449-1.06-2.449-2.877" transform="translate(-99.859 -7.143)"/>
                    <path id="패스_1321" data-name="패스 1321" class="cls-5" d="M287.528 27.478v-4.817c0-1.817.909-2.877 2.45-2.877s2.45 1.059 2.45 2.877v4.817c0 1.817-.909 2.877-2.45 2.877s-2.45-1.06-2.45-2.877m3.648 0v-4.817c0-1.1-.5-1.707-1.2-1.707s-1.2.605-1.2 1.707v4.817c0 1.115.5 1.707 1.2 1.707s1.2-.592 1.2-1.707" transform="translate(-103.809 -7.143)"/>
                    <path id="패스_1322" data-name="패스 1322" class="cls-5" d="M302.557 20.267v.523c0 .206-.082.289-.289.289h-2.024c-.206 0-.261.055-.261.262v2.821c0 .207.055.262.261.262h1.335c.206 0 .289.082.289.289v.523c0 .206-.083.289-.289.289h-1.335c-.206 0-.261.055-.261.261v4.225c0 .206-.082.289-.289.289h-.674c-.206 0-.289-.083-.289-.289v-9.744c0-.206.082-.289.289-.289h3.248c.206 0 .289.082.289.289" transform="translate(-107.854 -7.213)"/>
                    <path id="패스_1323" data-name="패스 1323" class="cls-5" d="M311.6 20.267v.523c0 .206-.082.289-.289.289h-2.024c-.206 0-.261.055-.261.262v2.821c0 .207.055.262.261.262h1.335c.206 0 .289.082.289.289v.523c0 .206-.083.289-.289.289h-1.335c-.206 0-.261.055-.261.261v4.225c0 .206-.082.289-.289.289h-.675c-.206 0-.289-.083-.289-.289v-9.744c0-.206.082-.289.289-.289h3.248c.206 0 .289.082.289.289" transform="translate(-111.12 -7.213)"/>
                    <path id="패스_1324" data-name="패스 1324" class="cls-5" d="M318.077 24.162c0 .206.055.262.261.262h2.01c.206 0 .289.082.289.289v.523c0 .206-.083.289-.289.289h-2.01c-.206 0-.261.055-.261.261v3.152c0 .206.055.261.261.261h2.01c.206 0 .289.082.289.289v.523c0 .206-.083.289-.289.289h-3.235c-.206 0-.289-.082-.289-.289v-9.744c0-.206.082-.289.289-.289h3.235c.206 0 .289.082.289.289v.523c0 .206-.083.289-.289.289h-2.01c-.206 0-.261.055-.261.261z" transform="translate(-114.387 -7.213)"/>
                    <path id="패스_1325" data-name="패스 1325" class="cls-5" d="M327.577 24.162c0 .206.055.262.261.262h2.01c.206 0 .289.082.289.289v.523c0 .206-.083.289-.289.289h-2.01c-.206 0-.261.055-.261.261v3.152c0 .206.055.261.261.261h2.01c.206 0 .289.082.289.289v.523c0 .206-.083.289-.289.289h-3.235c-.206 0-.289-.082-.289-.289v-9.744c0-.206.082-.289.289-.289h3.235c.206 0 .289.082.289.289v.523c0 .206-.083.289-.289.289h-2.01c-.206 0-.261.055-.261.261z" transform="translate(-117.816 -7.213)"/>
                    <path id="패스_1326" data-name="패스 1326" class="cls-5" d="M347.13 25.138v.44c0 .207-.082.289-.289.289h-.523c-.206 0-.261.056-.261.262V28a2.075 2.075 0 0 1-2.133 2.353c-1.1 0-2.174-.661-2.174-2.477V26.6a2.214 2.214 0 0 1 .743-1.8 2.217 2.217 0 0 1-.743-1.8v-.73c0-1.817 1.073-2.477 2.161-2.477a1.863 1.863 0 0 1 1.982 1.652c.013.123-.014.247-.179.247h-.661a.212.212 0 0 1-.234-.165.9.9 0 0 0-.853-.619c-.482 0-1.005.317-1.005 1.184v.936c0 .866.523 1.2 1.005 1.2.206 0 .289.083.289.289v.565c0 .206-.082.289-.289.289-.482 0-1.005.33-1.005 1.2v1.5c0 .867.537 1.183 1.018 1.183a1.034 1.034 0 0 0 1.033-1.183v-2.933c0-.206.082-.289.289-.289h1.542c.206 0 .289.082.289.289" transform="translate(-123.385 -7.143)"/>
                    <path id="패스_1327" data-name="패스 1327" class="cls-5" d="M359.154 27.478v-4.817c0-1.817.909-2.877 2.45-2.877a2.236 2.236 0 0 1 2.353 2.243c0 .124-.013.247-.178.247h-.771c-.151 0-.22-.041-.233-.192a1.216 1.216 0 0 0-1.157-1.128c-.716 0-1.211.605-1.211 1.707v4.817c0 1.1.5 1.707 1.211 1.707a1.216 1.216 0 0 0 1.157-1.128c.013-.152.082-.193.233-.193h.771c.165 0 .178.124.178.248a2.236 2.236 0 0 1-2.353 2.243c-1.541 0-2.45-1.06-2.45-2.877" transform="translate(-129.669 -7.143)"/>
                    <path id="패스_1328" data-name="패스 1328" class="cls-5" d="M370.1 27.478v-4.817c0-1.817.909-2.877 2.45-2.877s2.45 1.059 2.45 2.877v4.817c0 1.817-.909 2.877-2.45 2.877s-2.45-1.06-2.45-2.877m3.648 0v-4.817c0-1.1-.5-1.707-1.2-1.707s-1.2.605-1.2 1.707v4.817c0 1.115.5 1.707 1.2 1.707s1.2-.592 1.2-1.707" transform="translate(-133.62 -7.143)"/>
                    <path id="패스_1329" data-name="패스 1329" class="cls-5" d="M385.126 20.267v.523c0 .206-.083.289-.289.289h-2.023c-.206 0-.261.055-.261.262v2.821c0 .207.055.262.261.262h1.335c.207 0 .289.082.289.289v.523c0 .206-.082.289-.289.289h-1.335c-.206 0-.261.055-.261.261v4.225c0 .206-.083.289-.289.289h-.675c-.206 0-.289-.083-.289-.289v-9.744c0-.206.083-.289.289-.289h3.248c.206 0 .289.082.289.289" transform="translate(-137.664 -7.213)"/>
                    <path id="패스_1330" data-name="패스 1330" class="cls-5" d="M394.173 20.267v.523c0 .206-.083.289-.289.289h-2.024c-.206 0-.261.055-.261.262v2.821c0 .207.055.262.261.262h1.34c.207 0 .289.082.289.289v.523c0 .206-.082.289-.289.289h-1.34c-.206 0-.261.055-.261.261v4.225c0 .206-.083.289-.289.289h-.675c-.206 0-.289-.083-.289-.289v-9.744c0-.206.083-.289.289-.289h3.248c.206 0 .289.082.289.289" transform="translate(-140.931 -7.213)"/>
                    <path id="패스_1331" data-name="패스 1331" class="cls-5" d="M400.647 24.162c0 .206.055.262.261.262h2.01c.206 0 .289.082.289.289v.523c0 .206-.083.289-.289.289h-2.01c-.206 0-.261.055-.261.261v3.152c0 .206.055.261.261.261h2.01c.206 0 .289.082.289.289v.523c0 .206-.083.289-.289.289h-3.235c-.206 0-.289-.082-.289-.289v-9.744c0-.206.082-.289.289-.289h3.235c.206 0 .289.082.289.289v.523c0 .206-.083.289-.289.289h-2.01c-.206 0-.261.055-.261.261z" transform="translate(-144.198 -7.213)"/>
                    <path id="패스_1332" data-name="패스 1332" class="cls-5" d="M410.146 24.162c0 .206.055.262.262.262h2.009c.206 0 .289.082.289.289v.523c0 .206-.083.289-.289.289h-2.009c-.207 0-.262.055-.262.261v3.152c0 .206.055.261.262.261h2.009c.206 0 .289.082.289.289v.523c0 .206-.083.289-.289.289h-3.234c-.206 0-.289-.082-.289-.289v-9.744c0-.206.083-.289.289-.289h3.234c.206 0 .289.082.289.289v.523c0 .206-.083.289-.289.289h-2.009c-.207 0-.262.055-.262.261z" transform="translate(-147.627 -7.213)"/>
                    <path id="패스_1333" data-name="패스 1333" class="cls-5" d="M424.424 30.012v-9.745c0-.206.083-.289.289-.289h2a2.307 2.307 0 0 1 2.422 2.574v.289a2.315 2.315 0 0 1-1.033 2.05 2.342 2.342 0 0 1 1.2 2.354v.413a2.346 2.346 0 0 1-2.492 2.643h-2.092c-.206 0-.289-.082-.289-.289m2.162-5.643c.757 0 1.321-.468 1.321-1.486v-.317c0-1.019-.551-1.486-1.321-1.486h-.647c-.207 0-.262.055-.262.289v2.739c0 .206.055.261.262.261zm.082 4.831c.812 0 1.39-.482 1.39-1.611v-.509c0-1.143-.578-1.61-1.39-1.61h-.729c-.207 0-.262.055-.262.261v3.207c0 .206.055.261.262.261z" transform="translate(-153.234 -7.213)"/>
                    <path id="패스_1334" data-name="패스 1334" class="cls-5" d="M436.729 20.252c.056-.234.151-.275.372-.275h.523c.22 0 .316.042.371.275l2.119 9.772c.042.206-.055.275-.206.275h-.716c-.179 0-.261-.069-.3-.275l-.385-1.844c-.042-.165-.1-.193-.275-.193H436.5c-.179 0-.234.027-.275.193l-.385 1.844c-.041.206-.124.275-.3.275h-.716c-.152 0-.249-.069-.207-.275zm-.137 6.634h1.542c.068 0 .123-.041.11-.151l-.8-4.074c-.028-.1-.151-.1-.166 0l-.8 4.074c-.014.111.042.151.11.151" transform="translate(-156.908 -7.212)"/>
                    <path id="패스_1335" data-name="패스 1335" class="cls-5" d="M451.147 30.3h-.812a.294.294 0 0 1-.317-.192l-1.487-3.854h-.771c-.206 0-.261.055-.261.262v3.5c0 .206-.082.289-.289.289h-.674c-.206 0-.289-.082-.289-.289v-9.749c0-.206.082-.289.289-.289h2c1.376 0 2.367.977 2.367 2.711v.867a2.574 2.574 0 0 1-1.211 2.422l1.6 4.047c.07.165 0 .275-.137.275m-3.386-5.189h.689c.619 0 1.211-.468 1.211-1.555v-.909c0-1.1-.592-1.569-1.211-1.569h-.689c-.206 0-.261.055-.261.261v3.51c0 .206.055.261.261.261" transform="translate(-161.113 -7.213)"/>
                </g>
            </g>
        </g>
    </g>
</svg>
